<?xml version="1.0" standalone="no"?>
<!DOCTYPE svg PUBLIC "-//W3C//DTD SVG 20010904//EN"
 "http://www.w3.org/TR/2001/REC-SVG-20010904/DTD/svg10.dtd">
<svg version="1.0" xmlns="http://www.w3.org/2000/svg"
 width="700.000000pt" height="700.000000pt" viewBox="0 0 700.000000 700.000000"
 preserveAspectRatio="xMidYMid meet">
<metadata>
Created by potrace 1.11, written by Peter Selinger 2001-2013
</metadata>
<g transform="translate(0.000000,700.000000) scale(0.100000,-0.100000)"
fill="#000000" stroke="none">
<path d="M0 3500 l0 -3500 3500 0 3500 0 0 3500 0 3500 -3500 0 -3500 0 0
-3500z m4750 1046 c255 -48 509 -144 710 -269 518 -323 855 -841 945 -1452 21
-144 21 -413 0 -564 -60 -426 -248 -813 -545 -1124 -305 -319 -682 -517 -1140
-599 -48 -8 -156 -13 -305 -13 -194 0 -248 4 -345 22 -412 79 -774 269 -1064
559 -291 291 -468 626 -558 1054 -30 148 -32 165 -32 380 0 247 10 334 65 538
206 779 866 1363 1668 1477 128 19 484 13 601 -9z"/>
</g>
</svg>
